#!OML:ASF E:/inclinewalkrobotboard/Project1/Captureday1/Session1/subject1.ASF
:FULLY-SPECIFIED
:DEGREES
63
root 0 0 0 -8.113149570698813 -34.81949074018148 7.182260998872785
lowerback 10.24601453235338 -0.44050068778636464 -4.1920980338311
upperback 5.103629063731283 -1.0669002095798743 -1.114738410301487
thorax -0.2536016485965975 -0.5710823459335785 1.2822847953229974
lowerneck 2.793882825729188 -0.08790287239637085 -7.822726831413109
upperneck 10.827337645559492 -0.7146475152097298 8.164788399362429
head 2.9999870762042837 -0.5421902379463328 4.043921422442197
rclavicle 3.4143496877456335E-16 5.128498198012939E-16
rhumerus 16.00740777211693 28.597130722696257 -72.56063434664985
rradius 104.15292562987607
rwrist -20.229259799626668
rhand -39.59250317584569 -22.892433936443727
rfingers 7.125019999999954
rthumb -12.523706344296825 -52.3600383714048
lclavicle -3.360727225338292E-15 9.546797213650891E-16
lhumerus -30.167222354111384 -15.64532566004287 87.34688484449104
lradius 37.40995210372041
lwrist -24.28762195718491
lhand -2.376002911889879 22.06406177366565
lfingers 7.0896415917538675
lthumb 23.107909804024388 59.84221645511411
rfemur -23.102627455348607 12.968748826016789 10.154919030925711
rtibia 39.40466341278489
rfoot -14.99472391783518 -11.316402497628792
rtoes -8.76738923274071
lfemur -16.597964016571485 1.908485796960011 -13.605199311495062
ltibia 46.505162479411965
lfoot -16.785077689399188 7.875516906294308
ltoes -7.430384576883299
64
root 0 0 0 -7.995573614041444 -35.07609488075142 7.038429614145524
lowerback 10.329019118068214 -0.38105334874366403 -4.159874288645207
upperback 5.129024860042972 -0.992489669440876 -1.1575429826602437
thorax -0.27308131253769785 -0.5336399628481258 1.2125699473578766
lowerneck 2.8580128523590123 -0.19265829939641144 -7.900840272211554
upperneck 10.30097843921393 -0.847713918478386 8.346832815061003
head 2.842196878973767 -0.6065077126519782 4.107304558254908
rclavicle 3.299018873341733E-16 5.06770314608615E-16
rhumerus 16.05920388008495 28.43351889413747 -72.47910318079163
rradius 103.93183050140436
rwrist -20.06183499634772
rhand -39.53683568558906 -22.785195018039445
rfingers 7.125019999999954
rthumb -12.46981555715818 -52.25526159681114
lclavicle -3.3481093996693134E-15 9.443243305759605E-16
lhumerus -30.158527501675067 -15.411004838358764 87.24261537051878
lradius 37.04111690811789
lwrist -24.52407861614187
lhand -2.3708188044177874 21.984083690915103
lfingers 7.08950453590491
lthumb 23.111665076496486 59.86610195875136
rfemur -19.216081909402714 14.324904124597332 11.755027568927927
rtibia 35.58161519924075
rfoot -17.123714369286233 -11.606001139970807
rtoes -8.957092283223432
lfemur -16.211176703240188 1.6182098562068936 -13.608885796829856
ltibia 45.63329878891056
lfoot -16.76882676076534 8.207753345327912
ltoes -7.1512608415494014
65
root 0 0 0 -7.889289331176487 -35.32099525237426 6.901750942819234
lowerback 10.3763883368842 -0.3124858890186244 -4.094174325700585
upperback 5.135815064848298 -0.9015327225120002 -1.1986585592232304
thorax -0.29249268030625464 -0.4881539693871775 1.1245243443465018
lowerneck 2.8701793317352973 -0.24756593420227224 -7.9310366343157686
upperneck 9.83490084579021 -0.9095203909841554 8.438129710381707
head 2.706648201327945 -0.6357139336536786 4.138351126494651
rclavicle 3.305354309668059E-16 4.95787691633953E-16
rhumerus 16.123705452163456 28.2640103471665 -72.3932110223477
rradius 103.73829011474832
rwrist -19.91282034877368
rhand -39.49473189036258 -22.688683375868216
rfingers 7.125019999999955
rthumb -12.429326883592287 -52.161168637944456
lclavicle -3.307026854349549E-15 9.202766607686651E-16
lhumerus -30.020455408545473 -14.933108315747617 86.96934147157877
lradius 36.446679807165985
lwrist -24.836486147825035
lhand -2.4304880413341685 21.860636184789648
lfingers 7.089255654394173
lthumb 23.05134735447272 59.890748719163454
rfemur -16.297528382786137 15.18736550457179 13.03400180615004
rtibia 32.92972932160237
rfoot -18.555263175485873 -11.8122548505981
rtoes -8.952032714897278
lfemur -16.101440728914977 1.4256282350108274 -13.568041330142906
ltibia 45.16285106564712
lfoot -16.634779781792467 8.347575636912605
ltoes -6.973397712061606
66
root 0 0 0 -7.798718547748463 -35.510886985655205 6.8046662315768165
lowerback 10.409652577666916 -0.25159920066183405 -4.033343563780892
upperback 5.1424969094378685 -0.8201823519114295 -1.2345957030294892
thorax -0.3039296358907333 -0.44759251508431075 1.0453914242005864
lowerneck 2.8828264880390124 -0.2703396686585666 -7.938816054302745
upperneck 9.488113054005685 -0.9291647599749999 8.481275771737506
head 2.603650826092012 -0.6446215556021353 4.153230998990451
rclavicle 3.286782557982933E-16 4.865818788449191E-16
rhumerus 16.21188543812691 28.060755601051557 -72.28984377606332
rradius 103.5457508663728
rwrist -19.758833905332047
rhand -39.46140335437445 -22.588701825487743
rfingers 7.125019999999955
rthumb -12.397390121851986 -52.06361118049524
lclavicle -3.23960074700573E-15 8.851706842567344E-16
lhumerus -29.689693262924223 -14.269311513520025 86.51903018962216
lradius 35.79125262746252
lwrist -25.093820024434216
lhand -2.584815999862016 21.731894858903388
lfingers 7.088994116512691
lthumb 22.898624202479077 59.90622734806822
rfemur -15.00730981882133 15.41023482851704 13.678711871095443
rtibia 31.98492498074635
rfoot -19.00649897372717 -11.883673715809799
rtoes -8.785623841721652
lfemur -16.28713265466064 1.3998200846563917 -13.501915197716357
ltibia 45.22842144781057
lfoot -16.451306359289738 8.281349992757656
ltoes -6.937687076505185
